<svg width="18" height="18" viewBox="0 0 18 18" fill="none" xmlns="http://www.w3.org/2000/svg">
<g id="Icon/app">
<path id="Vector" d="M7.5 1.5H2.25C1.8 1.5 1.5 1.8 1.5 2.25V7.5C1.5 7.95 1.8 8.25 2.25 8.25H7.5C7.95 8.25 8.25 7.95 8.25 7.5V2.25C8.25 1.8 7.95 1.5 7.5 1.5ZM7.5 9.75H2.25C1.8 9.75 1.5 10.05 1.5 10.5V15.75C1.5 16.2 1.8 16.5 2.25 16.5H7.5C7.95 16.5 8.25 16.2 8.25 15.75V10.5C8.25 10.05 7.95 9.75 7.5 9.75ZM15.75 1.5H10.5C10.05 1.5 9.75 1.8 9.75 2.25V7.5C9.75 7.95 10.05 8.25 10.5 8.25H15.75C16.2 8.25 16.5 7.95 16.5 7.5V2.25C16.5 1.8 16.2 1.5 15.75 1.5ZM15.75 9.75H10.5C10.05 9.75 9.75 10.05 9.75 10.5V15.75C9.75 16.2 10.05 16.5 10.5 16.5H15.75C16.2 16.5 16.5 16.2 16.5 15.75V10.5C16.5 10.05 16.2 9.75 15.75 9.75Z" fill="white"/>
</g>
</svg>
