<svg width="18" height="18" viewBox="0 0 18 18" fill="none" xmlns="http://www.w3.org/2000/svg">
<g id="Group">
<path id="Vector" fill-rule="evenodd" clip-rule="evenodd" d="M1.96051 4.0695C2.04566 3.86391 2.18987 3.68819 2.37491 3.56457C2.55994 3.44094 2.77748 3.37497 3.00001 3.375H10.5C11.9918 3.375 13.4226 3.96763 14.4775 5.02252C15.5324 6.07742 16.125 7.50816 16.125 9C16.125 10.4918 15.5324 11.9226 14.4775 12.9775C13.4226 14.0324 11.9918 14.625 10.5 14.625H3.75001C3.45164 14.625 3.16549 14.5065 2.95451 14.2955C2.74353 14.0845 2.62501 13.7984 2.62501 13.5C2.62501 13.2016 2.74353 12.9155 2.95451 12.7045C3.16549 12.4935 3.45164 12.375 3.75001 12.375H10.5C11.3951 12.375 12.2536 12.0194 12.8865 11.3865C13.5194 10.7536 13.875 9.89511 13.875 9C13.875 8.10489 13.5194 7.24645 12.8865 6.61351C12.2536 5.98058 11.3951 5.625 10.5 5.625H5.71575L6.42075 6.33C6.62559 6.54227 6.73885 6.82651 6.73615 7.12148C6.73344 7.41645 6.615 7.69856 6.40631 7.90704C6.19763 8.11553 5.91541 8.23371 5.62043 8.23614C5.32546 8.23856 5.04134 8.12503 4.82926 7.92L2.20426 5.295C2.04704 5.1377 1.93998 4.93732 1.8966 4.7192C1.85321 4.50108 1.87545 4.27499 1.96051 4.0695Z" fill="white"/>
</g>
</svg>
