<svg width="24" height="25" viewBox="0 0 24 25" fill="none" xmlns="http://www.w3.org/2000/svg">
<g id="Icon/check">
<path id="Vector" d="M9.99999 14.1L15.9 8.20005C16.0833 8.01672 16.3167 7.92505 16.6 7.92505C16.8833 7.92505 17.1167 8.01672 17.3 8.20005C17.4833 8.38338 17.575 8.61671 17.575 8.90005C17.575 9.18338 17.4833 9.41672 17.3 9.60005L10.7 16.2C10.5 16.4 10.2667 16.5 9.99999 16.5C9.73332 16.5 9.49999 16.4 9.29999 16.2L6.69999 13.6C6.51665 13.4167 6.42499 13.1834 6.42499 12.9C6.42499 12.6167 6.51665 12.3834 6.69999 12.2C6.88332 12.0167 7.11665 11.925 7.39999 11.925C7.68332 11.925 7.91665 12.0167 8.09999 12.2L9.99999 14.1Z" fill="#A6A6A6"/>
</g>
</svg>
