<svg width="18" height="18" viewBox="0 0 18 18" fill="none" xmlns="http://www.w3.org/2000/svg">
<path d="M11.25 7.50015L8.25001 10.5002L6.75001 9.00015M9.93451 2.5944L10.8503 3.3744C11.0813 3.5709 11.3678 3.6894 11.6693 3.71415L12.8693 3.81015C13.2103 3.83739 13.5306 3.98519 13.7726 4.22706C14.0146 4.46894 14.1626 4.78909 14.19 5.13015L14.2853 6.33015C14.31 6.6324 14.4293 6.91965 14.6258 7.1499L15.4058 8.0649C15.6281 8.32552 15.7502 8.65685 15.7502 8.9994C15.7502 9.34195 15.6281 9.67328 15.4058 9.9339L14.6258 10.8497C14.4293 11.0807 14.31 11.3672 14.286 11.6694L14.19 12.8694C14.1628 13.2105 14.015 13.5307 13.7731 13.7727C13.5312 14.0147 13.2111 14.1627 12.87 14.1902L11.67 14.2862C11.3679 14.3101 11.081 14.4287 10.8503 14.6252L9.93451 15.4052C9.67383 15.6273 9.34252 15.7493 9.00001 15.7493C8.6575 15.7493 8.3262 15.6273 8.06551 15.4052L7.15051 14.6252C6.91954 14.4286 6.63239 14.3099 6.33001 14.2862L5.13001 14.1902C4.78883 14.1627 4.46859 14.0146 4.22669 13.7724C3.9848 13.5303 3.83708 13.2099 3.81001 12.8687L3.71401 11.6694C3.68972 11.3675 3.57084 11.0809 3.37426 10.8504L2.59426 9.9339C2.37236 9.67339 2.25049 9.34237 2.25049 9.00015C2.25049 8.65794 2.37236 8.32692 2.59426 8.0664L3.37426 7.1499C3.57151 6.9189 3.68926 6.6324 3.71326 6.33015L3.80926 5.1309C3.83686 4.78958 3.98508 4.46923 4.22736 4.22722C4.46964 3.98522 4.79016 3.83737 5.13151 3.81015L6.33001 3.7149C6.63221 3.69077 6.91909 3.57187 7.14976 3.37515L8.06551 2.59515C8.3262 2.373 8.6575 2.25098 9.00001 2.25098C9.34252 2.25098 9.67383 2.37225 9.93451 2.5944Z" stroke="white" stroke-width="1.5" stroke-linecap="round" stroke-linejoin="round"/>
</svg>
