<svg width="18" height="18" viewBox="0 0 18 18" fill="none" xmlns="http://www.w3.org/2000/svg">
<g id="active=true">
<path id="Vector" d="M9 16.875C6.91142 16.875 4.90838 16.0453 3.43153 14.5685C1.95469 13.0916 1.125 11.0886 1.125 9C1.125 6.91142 1.95469 4.90838 3.43153 3.43153C4.90838 1.95469 6.91142 1.125 9 1.125C11.0886 1.125 13.0916 1.95469 14.5685 3.43153C16.0453 4.90838 16.875 6.91142 16.875 9C16.875 11.0886 16.0453 13.0916 14.5685 14.5685C13.0916 16.0453 11.0886 16.875 9 16.875Z" fill="#171F31" stroke="#171F31"/>
<path id="Vector_2" d="M6.1875 8.4375H11.8125C11.9617 8.4375 12.1048 8.49676 12.2102 8.60225C12.3157 8.70774 12.375 8.85082 12.375 9C12.375 9.14918 12.3157 9.29226 12.2102 9.39775C12.1048 9.50324 11.9617 9.5625 11.8125 9.5625H6.1875C6.03832 9.5625 5.89524 9.50324 5.78975 9.39775C5.68426 9.29226 5.625 9.14918 5.625 9C5.625 8.85082 5.68426 8.70774 5.78975 8.60225C5.89524 8.49676 6.03832 8.4375 6.1875 8.4375Z" fill="white"/>
<path id="Vector_3" d="M8.4375 11.8125V6.1875C8.4375 6.03832 8.49676 5.89524 8.60225 5.78975C8.70774 5.68426 8.85082 5.625 9 5.625C9.14918 5.625 9.29226 5.68426 9.39775 5.78975C9.50324 5.89524 9.5625 6.03832 9.5625 6.1875V11.8125C9.5625 11.9617 9.50324 12.1048 9.39775 12.2102C9.29226 12.3157 9.14918 12.375 9 12.375C8.85082 12.375 8.70774 12.3157 8.60225 12.2102C8.49676 12.1048 8.4375 11.9617 8.4375 11.8125Z" fill="white"/>
</g>
</svg>
