<svg width="18" height="18" viewBox="0 0 18 18" fill="none" xmlns="http://www.w3.org/2000/svg">
<g id="Group">
<path id="Vector" fill-rule="evenodd" clip-rule="evenodd" d="M13.629 3.70881C13.914 3.3015 14.0256 2.79767 13.9393 2.3081C13.8529 1.81852 13.5757 1.38328 13.1685 1.09806L12.861 0.882812L9.00148 6.39531L5.14123 0.882812L4.83373 1.09806C4.42667 1.38339 4.14957 1.81869 4.06336 2.30826C3.97715 2.79783 4.08887 3.30159 4.37398 3.70881L7.62823 8.35656L6.27823 10.2841C5.52002 10.0414 4.70044 10.0746 3.96433 10.3777C3.22821 10.6809 2.62296 11.2345 2.25552 11.9407C1.88808 12.6469 1.78211 13.4603 1.95634 14.2371C2.13057 15.0139 2.57378 15.7041 3.20765 16.1857C3.84151 16.6674 4.62523 16.9094 5.42031 16.8691C6.21538 16.8289 6.97062 16.5088 7.55256 15.9656C8.13449 15.4223 8.50567 14.6909 8.60049 13.9005C8.69531 13.11 8.50767 12.3115 8.07073 11.6461L9.00073 10.3186L9.93073 11.6446C9.49344 12.3098 9.30535 13.1081 9.39971 13.8986C9.49407 14.689 9.86479 15.4207 10.4464 15.9642C11.028 16.5078 11.783 16.8283 12.578 16.8691C13.373 16.9099 14.1568 16.6683 14.791 16.1871C15.4252 15.706 15.8688 15.0161 16.0436 14.2395C16.2183 13.4628 16.113 12.6494 15.746 11.9429C15.3791 11.2365 14.7743 10.6825 14.0385 10.3788C13.3026 10.0751 12.4831 10.0413 11.7247 10.2833L10.3747 8.35656L13.629 3.70881ZM4.12498 13.5001C4.12498 13.3523 4.15408 13.206 4.21061 13.0695C4.26715 12.9331 4.35002 12.809 4.45448 12.7046C4.55895 12.6001 4.68297 12.5172 4.81946 12.4607C4.95595 12.4042 5.10224 12.3751 5.24998 12.3751C5.39772 12.3751 5.54401 12.4042 5.6805 12.4607C5.81699 12.5172 5.94101 12.6001 6.04547 12.7046C6.14994 12.809 6.23281 12.9331 6.28934 13.0695C6.34588 13.206 6.37498 13.3523 6.37498 13.5001C6.37498 13.7984 6.25645 14.0846 6.04547 14.2956C5.83449 14.5065 5.54835 14.6251 5.24998 14.6251C4.95161 14.6251 4.66546 14.5065 4.45448 14.2956C4.2435 14.0846 4.12498 13.7984 4.12498 13.5001ZM11.625 13.5001C11.625 13.2017 11.7435 12.9155 11.9545 12.7046C12.1655 12.4936 12.4516 12.3751 12.75 12.3751C13.0483 12.3751 13.3345 12.4936 13.5455 12.7046C13.7565 12.9155 13.875 13.2017 13.875 13.5001C13.875 13.7984 13.7565 14.0846 13.5455 14.2956C13.3345 14.5065 13.0483 14.6251 12.75 14.6251C12.4516 14.6251 12.1655 14.5065 11.9545 14.2956C11.7435 14.0846 11.625 13.7984 11.625 13.5001Z" fill="black"/>
</g>
</svg>
