<svg width="10" height="14" viewBox="0 0 10 14" fill="none" xmlns="http://www.w3.org/2000/svg">
<g id="Group">
<path id="Vector" d="M2.375 3.9375H4.125M2.375 7H7.625M2.375 8.75H7.625M2.375 10.5H4.125M1.5 12.6875H8.5C8.73206 12.6875 8.95462 12.5953 9.11872 12.4312C9.28281 12.2671 9.375 12.0446 9.375 11.8125V2.1875C9.375 1.95544 9.28281 1.73288 9.11872 1.56878C8.95462 1.40469 8.73206 1.3125 8.5 1.3125H1.5C1.26794 1.3125 1.04538 1.40469 0.881282 1.56878C0.717187 1.73288 0.625 1.95544 0.625 2.1875V11.8125C0.625 12.0446 0.717187 12.2671 0.881282 12.4312C1.04538 12.5953 1.26794 12.6875 1.5 12.6875Z" stroke="white" stroke-width="1.125" stroke-linecap="round" stroke-linejoin="round"/>
<path id="Vector_2" d="M7.625 4.15625C7.74581 4.15625 7.84375 4.05831 7.84375 3.9375C7.84375 3.81669 7.74581 3.71875 7.625 3.71875C7.50419 3.71875 7.40625 3.81669 7.40625 3.9375C7.40625 4.05831 7.50419 4.15625 7.625 4.15625Z" fill="white" stroke="white" stroke-width="0.5625"/>
</g>
</svg>
