<svg width="16" height="14" viewBox="0 0 16 14" fill="none" xmlns="http://www.w3.org/2000/svg">
<path d="M13.2553 0.25C13.6099 0.252471 13.9589 0.338725 14.2738 0.501726C14.5888 0.664728 14.8607 0.899861 15.0675 1.18795C15.2743 1.47604 15.41 1.80892 15.4637 2.15946C15.5173 2.50999 15.4874 2.86824 15.3763 3.205L15.3253 3.34375L15.2788 3.43825L9.96127 12.613C9.77359 12.9526 9.50129 13.2379 9.17081 13.4411C8.84033 13.6444 8.4629 13.7588 8.07517 13.7731C7.68744 13.7875 7.30259 13.7013 6.958 13.523C6.6134 13.3447 6.32077 13.0803 6.10852 12.7555L6.03127 12.6257L0.706272 3.43825L0.660521 3.3445C0.525455 3.01198 0.471896 2.65197 0.504315 2.29453C0.536734 1.93709 0.654191 1.59259 0.846879 1.2898C1.03957 0.987 1.3019 0.734693 1.61196 0.553939C1.92203 0.373185 2.27084 0.269229 2.62927 0.25075L2.67277 0.25L2.71777 0.2515L2.75002 0.25H13.2553Z" fill="white"/>
</svg>
