<svg width="18" height="18" viewBox="0 0 18 18" fill="none" xmlns="http://www.w3.org/2000/svg">
<g id="Icon/down">
<path id="Vector" d="M8.99998 12.2313C8.89998 12.2313 8.80323 12.2126 8.70973 12.1751C8.61573 12.1376 8.53748 12.0876 8.47498 12.0251L5.02498 8.5751C4.88748 8.4376 4.81873 8.2626 4.81873 8.0501C4.81873 7.8376 4.88748 7.6626 5.02498 7.5251C5.16248 7.3876 5.33748 7.31885 5.54998 7.31885C5.76248 7.31885 5.93748 7.3876 6.07498 7.5251L8.99998 10.4501L11.925 7.5251C12.0625 7.3876 12.2375 7.31885 12.45 7.31885C12.6625 7.31885 12.8375 7.3876 12.975 7.5251C13.1125 7.6626 13.1812 7.8376 13.1812 8.0501C13.1812 8.2626 13.1125 8.4376 12.975 8.5751L9.52498 12.0251C9.44998 12.1001 9.36873 12.1531 9.28123 12.1841C9.19373 12.2156 9.09998 12.2313 8.99998 12.2313Z" fill="#6B6B6B"/>
</g>
</svg>
