<svg width="18" height="19" viewBox="0 0 18 19" fill="none" xmlns="http://www.w3.org/2000/svg">
<path d="M9.0001 12.7313C8.9001 12.7313 8.80335 12.7126 8.70985 12.6751C8.61585 12.6376 8.5376 12.5876 8.4751 12.5251L5.0251 9.0751C4.8876 8.9376 4.81885 8.7626 4.81885 8.5501C4.81885 8.3376 4.8876 8.1626 5.0251 8.0251C5.1626 7.8876 5.3376 7.81885 5.5501 7.81885C5.7626 7.81885 5.9376 7.8876 6.0751 8.0251L9.0001 10.9501L11.9251 8.0251C12.0626 7.8876 12.2376 7.81885 12.4501 7.81885C12.6626 7.81885 12.8376 7.8876 12.9751 8.0251C13.1126 8.1626 13.1813 8.3376 13.1813 8.5501C13.1813 8.7626 13.1126 8.9376 12.9751 9.0751L9.5251 12.5251C9.4501 12.6001 9.36885 12.6531 9.28135 12.6841C9.19385 12.7156 9.1001 12.7313 9.0001 12.7313Z" fill="#6B6B6B"/>
</svg>
