<svg width="18" height="18" viewBox="0 0 18 18" fill="none" xmlns="http://www.w3.org/2000/svg">
<path d="M5.57146 9H9.85718M5.57146 10.7143H11.5715M5.57146 12.4286H8.14289M14.1429 13.2857V7.28571L9.85718 3H5.57146C5.11681 3 4.68077 3.18061 4.35928 3.5021C4.03779 3.82359 3.85718 4.25963 3.85718 4.71429V13.2857C3.85718 13.7404 4.03779 14.1764 4.35928 14.4979C4.68077 14.8194 5.11681 15 5.57146 15H12.4286C12.8833 15 13.3193 14.8194 13.6408 14.4979C13.9623 14.1764 14.1429 13.7404 14.1429 13.2857Z" stroke="white" stroke-width="0.857143" stroke-linecap="round" stroke-linejoin="round"/>
<path d="M9.85718 3V5.57143C9.85718 6.02609 10.0378 6.46212 10.3593 6.78361C10.6808 7.1051 11.1168 7.28571 11.5715 7.28571H14.1429" stroke="white" stroke-width="0.857143" stroke-linecap="round" stroke-linejoin="round"/>
</svg>
