<svg width="16" height="16" viewBox="0 0 16 16" fill="none" xmlns="http://www.w3.org/2000/svg">
<g id="Group">
<path id="Vector" d="M8 5V14.75M1.25 5.75C1.25 5.55109 1.32902 5.36032 1.46967 5.21967C1.61032 5.07902 1.80109 5 2 5H14C14.1989 5 14.3897 5.07902 14.5303 5.21967C14.671 5.36032 14.75 5.55109 14.75 5.75V7.25C14.75 7.44891 14.671 7.63968 14.5303 7.78033C14.3897 7.92098 14.1989 8 14 8H2C1.80109 8 1.61032 7.92098 1.46967 7.78033C1.32902 7.63968 1.25 7.44891 1.25 7.25V5.75Z" stroke="white" stroke-width="1.5" stroke-linecap="round" stroke-linejoin="round"/>
<path id="Vector_2" d="M13.25 8.00008V13.2501C13.25 13.6479 13.092 14.0294 12.8107 14.3107C12.5294 14.592 12.1478 14.7501 11.75 14.7501H4.25C3.85218 14.7501 3.47064 14.592 3.18934 14.3107C2.90804 14.0294 2.75 13.6479 2.75 13.2501V8.00008M4.625 5.00008C4.12772 5.00008 3.65081 4.80254 3.29917 4.45091C2.94754 4.09928 2.75 3.62236 2.75 3.12508C2.75 2.6278 2.94754 2.15089 3.29917 1.79926C3.65081 1.44763 4.12772 1.25008 4.625 1.25008C5.34851 1.23748 6.05752 1.58853 6.65955 2.25745C7.26159 2.92638 7.72871 3.88214 8 5.00008C8.27129 3.88214 8.73841 2.92638 9.34045 2.25745C9.94248 1.58853 10.6515 1.23748 11.375 1.25008C11.8723 1.25008 12.3492 1.44763 12.7008 1.79926C13.0525 2.15089 13.25 2.6278 13.25 3.12508C13.25 3.62236 13.0525 4.09928 12.7008 4.45091C12.3492 4.80254 11.8723 5.00008 11.375 5.00008" stroke="white" stroke-width="1.5" stroke-linecap="round" stroke-linejoin="round"/>
</g>
</svg>
