<svg width="15" height="15" viewBox="0 0 15 15" fill="none" xmlns="http://www.w3.org/2000/svg">
<g id="Icon/gps">
<path id="Vector" d="M12.715 6.91659C12.5829 5.73366 12.0525 4.63082 11.2108 3.78916C10.3691 2.9475 9.2663 2.41705 8.08337 2.28492V1.08325H6.91671V2.28492C5.73378 2.41705 4.63094 2.9475 3.78928 3.78916C2.94762 4.63082 2.41717 5.73366 2.28504 6.91659H1.08337V8.08325H2.28504C2.41717 9.26618 2.94762 10.369 3.78928 11.2107C4.63094 12.0523 5.73378 12.5828 6.91671 12.7149V13.9166H8.08337V12.7149C9.2663 12.5828 10.3691 12.0523 11.2108 11.2107C12.0525 10.369 12.5829 9.26618 12.715 8.08325H13.9167V6.91659H12.715ZM7.50004 11.5833C5.24254 11.5833 3.41671 9.75742 3.41671 7.49992C3.41671 5.24242 5.24254 3.41659 7.50004 3.41659C9.75754 3.41659 11.5834 5.24242 11.5834 7.49992C11.5834 9.75742 9.75754 11.5833 7.50004 11.5833Z" fill="#6B6B6B"/>
</g>
</svg>
