<svg width="16" height="16" viewBox="0 0 16 16" fill="none" xmlns="http://www.w3.org/2000/svg">
<g id="Group">
<path id="Vector" d="M8 2C6.4087 2 4.88258 2.63214 3.75736 3.75736C2.63214 4.88258 2 6.4087 2 8C2 9.5913 2.63214 11.1174 3.75736 12.2426C4.88258 13.3679 6.4087 14 8 14C9.5913 14 11.1174 13.3679 12.2426 12.2426C13.3679 11.1174 14 9.5913 14 8C14 6.4087 13.3679 4.88258 12.2426 3.75736C11.1174 2.63214 9.5913 2 8 2ZM0.5 8C0.5 3.85775 3.85775 0.5 8 0.5C12.1423 0.5 15.5 3.85775 15.5 8C15.5 12.1423 12.1423 15.5 8 15.5C3.85775 15.5 0.5 12.1423 0.5 8Z" fill="white"/>
<path id="Vector_2" d="M8 6.5C8.19891 6.5 8.38968 6.57902 8.53033 6.71967C8.67098 6.86032 8.75 7.05109 8.75 7.25V11.75C8.75 11.9489 8.67098 12.1397 8.53033 12.2803C8.38968 12.421 8.19891 12.5 8 12.5C7.80109 12.5 7.61032 12.421 7.46967 12.2803C7.32902 12.1397 7.25 11.9489 7.25 11.75V7.25C7.25 7.05109 7.32902 6.86032 7.46967 6.71967C7.61032 6.57902 7.80109 6.5 8 6.5ZM9.125 4.625C9.125 4.92337 9.00647 5.20952 8.7955 5.4205C8.58452 5.63147 8.29837 5.75 8 5.75C7.70163 5.75 7.41548 5.63147 7.2045 5.4205C6.99353 5.20952 6.875 4.92337 6.875 4.625C6.875 4.32663 6.99353 4.04048 7.2045 3.8295C7.41548 3.61853 7.70163 3.5 8 3.5C8.29837 3.5 8.58452 3.61853 8.7955 3.8295C9.00647 4.04048 9.125 4.32663 9.125 4.625Z" fill="white"/>
</g>
</svg>
