<svg width="14" height="18" viewBox="0 0 14 18" fill="none" xmlns="http://www.w3.org/2000/svg">
<g id="Mask group">
<mask id="mask0_420_712" style="mask-type:luminance" maskUnits="userSpaceOnUse" x="0" y="0" width="14" height="18">
<g id="Group">
<g id="Group_2">
<path id="Vector" d="M3.25 1.5V16.5M1 1.875V5.625C1 7.5 3.25 7.5 3.25 7.5C3.25 7.5 5.5 7.5 5.5 5.625V1.875M10.75 7.5V16.5" stroke="white" stroke-width="1.5" stroke-linecap="round" stroke-linejoin="round"/>
<path id="Vector_2" d="M13 4.5C13 6.15675 11.9927 7.5 10.75 7.5C9.50725 7.5 8.5 6.15675 8.5 4.5C8.5 2.84325 9.50725 1.5 10.75 1.5C11.9927 1.5 13 2.84325 13 4.5Z" fill="white" stroke="white" stroke-width="1.5" stroke-linecap="round" stroke-linejoin="round"/>
</g>
</g>
</mask>
<g mask="url(#mask0_420_712)">
<path id="Vector_3" d="M-2 0H16V18H-2V0Z" fill="white"/>
</g>
</g>
</svg>
