<svg width="36" height="36" viewBox="0 0 36 36" fill="none" xmlns="http://www.w3.org/2000/svg">
<rect x="35.75" y="35.75" width="35.5" height="35.5" rx="17.75" transform="rotate(180 35.75 35.75)" fill="white"/>
<rect x="35.75" y="35.75" width="35.5" height="35.5" rx="17.75" transform="rotate(180 35.75 35.75)" stroke="#A6A6A6" stroke-width="0.5"/>
<path d="M16.0498 10.0501L22.9498 16.95C23.0998 17.1 23.2058 17.2625 23.2678 17.4375C23.3308 17.6125 23.3623 17.8 23.3623 18C23.3623 18.2 23.3308 18.3875 23.2678 18.5625C23.2058 18.7375 23.0998 18.9 22.9498 19.05L16.0498 25.95C15.7748 26.225 15.4248 26.3625 14.9998 26.3625C14.5748 26.3625 14.2248 26.225 13.9498 25.95C13.6748 25.675 13.5373 25.325 13.5373 24.9C13.5373 24.475 13.6748 24.125 13.9498 23.85L19.7998 18L13.9498 12.15C13.6748 11.875 13.5373 11.525 13.5373 11.1C13.5373 10.675 13.6748 10.3251 13.9498 10.0501C14.2248 9.77505 14.5748 9.63755 14.9998 9.63755C15.4248 9.63755 15.7748 9.77505 16.0498 10.0501Z" fill="black"/>
</svg>
