<svg width="36" height="36" viewBox="0 0 36 36" fill="none" xmlns="http://www.w3.org/2000/svg">
<rect x="0.25" y="0.25" width="35.5" height="35.5" rx="17.75" fill="white"/>
<rect x="0.25" y="0.25" width="35.5" height="35.5" rx="17.75" stroke="#A6A6A6" stroke-width="0.5"/>
<path d="M19.9502 25.9499L13.0502 19.05C12.9002 18.9 12.7942 18.7375 12.7322 18.5625C12.6692 18.3875 12.6377 18.2 12.6377 18C12.6377 17.8 12.6692 17.6125 12.7322 17.4375C12.7942 17.2625 12.9002 17.1 13.0502 16.95L19.9502 10.05C20.2252 9.77495 20.5752 9.63745 21.0002 9.63745C21.4252 9.63745 21.7752 9.77495 22.0502 10.05C22.3252 10.325 22.4627 10.675 22.4627 11.1C22.4627 11.525 22.3252 11.875 22.0502 12.15L16.2002 18L22.0502 23.85C22.3252 24.125 22.4627 24.475 22.4627 24.9C22.4627 25.325 22.3252 25.6749 22.0502 25.9499C21.7752 26.2249 21.4252 26.3625 21.0002 26.3625C20.5752 26.3625 20.2252 26.2249 19.9502 25.9499Z" fill="black"/>
</svg>
