<svg width="15" height="15" viewBox="0 0 15 15" fill="none" xmlns="http://www.w3.org/2000/svg">
<g id="Icon/question">
<path id="Vector" d="M8.04688 10.3437C8.04688 10.4519 8.0148 10.5576 7.95471 10.6476C7.89462 10.7375 7.80921 10.8076 7.70928 10.849C7.60935 10.8904 7.4994 10.9012 7.39331 10.8801C7.28723 10.859 7.18979 10.8069 7.1133 10.7304C7.03682 10.654 6.98474 10.5565 6.96364 10.4504C6.94253 10.3444 6.95336 10.2344 6.99476 10.1345C7.03615 10.0345 7.10624 9.94913 7.19618 9.88904C7.28611 9.82895 7.39184 9.79687 7.5 9.79687C7.64504 9.79687 7.78414 9.85449 7.8867 9.95705C7.98926 10.0596 8.04688 10.1987 8.04688 10.3437ZM7.5 4.54687C6.35156 4.54687 5.42188 5.38086 5.42188 6.40625V6.625C5.42188 6.71202 5.45645 6.79548 5.51798 6.85702C5.57952 6.91855 5.66298 6.95312 5.75 6.95312C5.83703 6.95312 5.92049 6.91855 5.98202 6.85702C6.04356 6.79548 6.07813 6.71202 6.07813 6.625V6.40625C6.07813 5.74289 6.71578 5.20312 7.5 5.20312C8.28422 5.20312 8.92188 5.74289 8.92188 6.40625C8.92188 7.06961 8.28422 7.60937 7.5 7.60937C7.41298 7.60937 7.32952 7.64394 7.26798 7.70548C7.20645 7.76702 7.17188 7.85048 7.17188 7.9375V8.375C7.17188 8.46202 7.20645 8.54548 7.26798 8.60702C7.32952 8.66855 7.41298 8.70312 7.5 8.70312C7.58703 8.70312 7.67049 8.66855 7.73202 8.60702C7.79356 8.54548 7.82813 8.46202 7.82813 8.375V8.24266C8.81852 8.10156 9.57813 7.33156 9.57813 6.40625C9.57813 5.38086 8.64844 4.54687 7.5 4.54687ZM13.0781 7.5C13.0781 8.60325 12.751 9.68172 12.138 10.599C11.5251 11.5164 10.6539 12.2313 9.63466 12.6535C8.61539 13.0757 7.49381 13.1862 6.41176 12.9709C5.32971 12.7557 4.33579 12.2244 3.55567 11.4443C2.77556 10.6642 2.24429 9.67029 2.02906 8.58824C1.81383 7.50619 1.92429 6.38461 2.34649 5.36534C2.76868 4.34607 3.48364 3.47489 4.40096 2.86196C5.31828 2.24903 6.39675 1.92188 7.5 1.92188C8.97888 1.92361 10.3967 2.51186 11.4424 3.55759C12.4881 4.60331 13.0764 6.02112 13.0781 7.5ZM12.4219 7.5C12.4219 6.52654 12.1332 5.57495 11.5924 4.76555C11.0516 3.95615 10.2829 3.32531 9.38352 2.95278C8.48417 2.58026 7.49454 2.48279 6.53979 2.6727C5.58504 2.86261 4.70805 3.33137 4.01971 4.01971C3.33137 4.70805 2.86261 5.58504 2.6727 6.53979C2.48279 7.49454 2.58026 8.48416 2.95278 9.38352C3.32531 10.2829 3.95616 11.0516 4.76556 11.5924C5.57495 12.1332 6.52655 12.4219 7.5 12.4219C8.80492 12.4204 10.056 11.9014 10.9787 10.9787C11.9014 10.056 12.4204 8.80492 12.4219 7.5Z" fill="#A6A6A6"/>
</g>
</svg>
