<svg width="18" height="18" viewBox="0 0 18 18" fill="none" xmlns="http://www.w3.org/2000/svg">
<g id="Icon/question">
<path id="Vector" d="M9.70313 12.6562C9.70313 12.7953 9.66189 12.9313 9.58463 13.0469C9.50737 13.1625 9.39756 13.2526 9.26908 13.3059C9.1406 13.3591 8.99922 13.373 8.86283 13.3459C8.72644 13.3187 8.60115 13.2518 8.50282 13.1534C8.40448 13.0551 8.33752 12.9298 8.31039 12.7934C8.28326 12.657 8.29718 12.5157 8.3504 12.3872C8.40362 12.2587 8.49374 12.1489 8.60937 12.0716C8.725 11.9944 8.86094 11.9531 9 11.9531C9.18648 11.9531 9.36533 12.0272 9.49719 12.1591C9.62905 12.2909 9.70313 12.4698 9.70313 12.6562ZM9 5.20312C7.52344 5.20312 6.32813 6.27539 6.32813 7.59375V7.875C6.32813 7.98689 6.37258 8.09419 6.45169 8.17331C6.53081 8.25243 6.63811 8.29688 6.75 8.29688C6.86189 8.29688 6.9692 8.25243 7.04831 8.17331C7.12743 8.09419 7.17188 7.98689 7.17188 7.875V7.59375C7.17188 6.74086 7.99172 6.04688 9 6.04688C10.0083 6.04688 10.8281 6.74086 10.8281 7.59375C10.8281 8.44664 10.0083 9.14062 9 9.14062C8.88811 9.14062 8.78081 9.18507 8.70169 9.26419C8.62258 9.34331 8.57813 9.45061 8.57813 9.5625V10.125C8.57813 10.2369 8.62258 10.3442 8.70169 10.4233C8.78081 10.5024 8.88811 10.5469 9 10.5469C9.11189 10.5469 9.2192 10.5024 9.29831 10.4233C9.37743 10.3442 9.42188 10.2369 9.42188 10.125V9.95484C10.6952 9.77344 11.6719 8.78344 11.6719 7.59375C11.6719 6.27539 10.4766 5.20312 9 5.20312ZM16.1719 9C16.1719 10.4185 15.7513 11.8051 14.9632 12.9845C14.1751 14.1639 13.055 15.0831 11.7446 15.6259C10.4341 16.1688 8.99205 16.3108 7.60084 16.0341C6.20963 15.7573 4.93173 15.0743 3.92872 14.0713C2.92572 13.0683 2.24266 11.7904 1.96593 10.3992C1.68921 9.00796 1.83123 7.56593 2.37405 6.25544C2.91688 4.94495 3.83611 3.82486 5.01552 3.0368C6.19493 2.24875 7.58154 1.82813 9 1.82812C10.9014 1.83036 12.7243 2.58668 14.0688 3.93119C15.4133 5.27569 16.1696 7.09859 16.1719 9ZM15.3281 9C15.3281 7.74841 14.957 6.52494 14.2616 5.48428C13.5663 4.44363 12.578 3.63254 11.4217 3.15357C10.2654 2.67461 8.99298 2.5493 7.76545 2.79347C6.53791 3.03764 5.41035 3.64034 4.52534 4.52534C3.64034 5.41034 3.03764 6.53791 2.79347 7.76544C2.5493 8.99298 2.67462 10.2654 3.15358 11.4217C3.63254 12.578 4.44363 13.5663 5.48429 14.2616C6.52494 14.957 7.74842 15.3281 9 15.3281C10.6778 15.3263 12.2863 14.659 13.4726 13.4726C14.659 12.2863 15.3263 10.6778 15.3281 9Z" fill="white"/>
</g>
</svg>
