<svg width="288" height="6" viewBox="0 0 288 6" fill="none" xmlns="http://www.w3.org/2000/svg">
<path d="M8.2286 6L3.32937 1.5L13.1278 1.5L8.2286 6Z" fill="white"/>
<path d="M6.29425e-05 6L1.7643e-05 1.5L4.89929 1.5L6.29425e-05 6Z" fill="white"/>
<path d="M16.4571 6L11.5579 1.5L21.3563 1.5L16.4571 6Z" fill="white"/>
<path d="M24.6858 6L19.7865 1.5L29.585 1.5L24.6858 6Z" fill="white"/>
<path d="M32.9143 6L28.015 1.5L37.8135 1.5L32.9143 6Z" fill="white"/>
<path d="M41.1429 6L36.2437 1.5L46.0421 1.5L41.1429 6Z" fill="white"/>
<path d="M49.3714 6L44.4722 1.5L54.2707 1.5L49.3714 6Z" fill="white"/>
<path d="M57.5999 6L52.7007 1.5L62.4992 1.5L57.5999 6Z" fill="white"/>
<path d="M65.8286 6L60.9293 1.5L70.7278 1.5L65.8286 6Z" fill="white"/>
<path d="M74.0571 6L69.1579 1.5L78.9563 1.5L74.0571 6Z" fill="white"/>
<path d="M82.2857 6L77.3865 1.5L87.185 1.5L82.2857 6Z" fill="white"/>
<path d="M90.5142 6L85.615 1.5L95.4135 1.5L90.5142 6Z" fill="white"/>
<path d="M98.7429 6L93.8437 1.5L103.642 1.5L98.7429 6Z" fill="white"/>
<path d="M106.971 6L102.072 1.5L111.871 1.5L106.971 6Z" fill="white"/>
<path d="M115.2 6L110.301 1.5L120.099 1.5L115.2 6Z" fill="white"/>
<path d="M123.429 6L118.529 1.5L128.328 1.5L123.429 6Z" fill="white"/>
<path d="M131.657 6L126.758 1.5L136.556 1.5L131.657 6Z" fill="white"/>
<path d="M139.886 6L134.986 1.5L144.785 1.5L139.886 6Z" fill="white"/>
<path d="M148.114 6L143.215 1.5L153.014 1.5L148.114 6Z" fill="white"/>
<path d="M156.343 6L151.444 1.5L161.242 1.5L156.343 6Z" fill="white"/>
<path d="M164.571 6L159.672 1.5L169.471 1.5L164.571 6Z" fill="white"/>
<path d="M172.8 6L167.901 1.5L177.699 1.5L172.8 6Z" fill="white"/>
<path d="M181.029 6L176.129 1.5L185.928 1.5L181.029 6Z" fill="white"/>
<path d="M189.257 6L184.358 1.5L194.156 1.5L189.257 6Z" fill="white"/>
<path d="M197.486 6L192.586 1.5L202.385 1.5L197.486 6Z" fill="white"/>
<path d="M205.714 6L200.815 1.5L210.614 1.5L205.714 6Z" fill="white"/>
<path d="M213.943 6L209.044 1.5L218.842 1.5L213.943 6Z" fill="white"/>
<path d="M222.171 6L217.272 1.5L227.071 1.5L222.171 6Z" fill="white"/>
<path d="M230.4 6L225.501 1.5L235.299 1.5L230.4 6Z" fill="white"/>
<path d="M238.629 6L233.729 1.5L243.528 1.5L238.629 6Z" fill="white"/>
<path d="M246.857 6L241.958 1.5L251.756 1.5L246.857 6Z" fill="white"/>
<path d="M255.086 6L250.187 1.5L259.985 1.5L255.086 6Z" fill="white"/>
<path d="M263.315 6L258.415 1.5L268.214 1.5L263.315 6Z" fill="white"/>
<path d="M271.543 6L266.644 1.5L276.442 1.5L271.543 6Z" fill="white"/>
<path d="M279.771 6L274.872 1.5L284.671 1.5L279.771 6Z" fill="white"/>
<path d="M288 6L283.101 1.5L288 1.5V6Z" fill="white"/>
</svg>
