<svg width="18" height="18" viewBox="0 0 18 18" fill="none" xmlns="http://www.w3.org/2000/svg">
<path d="M9.975 12.9563C9.825 12.8063 9.753 12.6251 9.759 12.4126C9.765 12.2001 9.84325 12.0188 9.99375 11.8688L12.1125 9.7501H3.75C3.5375 9.7501 3.35925 9.6781 3.21525 9.5341C3.07125 9.3901 2.9995 9.2121 3 9.0001C3 8.7876 3.072 8.60935 3.216 8.46535C3.36 8.32135 3.538 8.2496 3.75 8.2501H12.1125L9.975 6.1126C9.825 5.9626 9.75 5.78435 9.75 5.57785C9.75 5.37135 9.825 5.19335 9.975 5.04385C10.125 4.89385 10.3033 4.81885 10.5098 4.81885C10.7163 4.81885 10.8943 4.89385 11.0438 5.04385L14.475 8.4751C14.55 8.5501 14.6033 8.63135 14.6348 8.71885C14.6663 8.80635 14.6818 8.9001 14.6813 9.0001C14.6813 9.1001 14.6655 9.19385 14.634 9.28135C14.6025 9.36885 14.5495 9.4501 14.475 9.5251L11.025 12.9751C10.8875 13.1126 10.7158 13.1813 10.5098 13.1813C10.3038 13.1813 10.1255 13.1063 9.975 12.9563Z" fill="white"/>
</svg>
