<svg width="17" height="16" viewBox="0 0 17 16" fill="none" xmlns="http://www.w3.org/2000/svg">
<g id="Mask group">
<mask id="mask0_887_1461" style="mask-type:luminance" maskUnits="userSpaceOnUse" x="0" y="0" width="17" height="16">
<g id="Group">
<g id="Group_2">
<path id="Vector" d="M13.375 5.75H3.625C3.21079 5.75 2.875 6.08579 2.875 6.5V14C2.875 14.4142 3.21079 14.75 3.625 14.75H13.375C13.7892 14.75 14.125 14.4142 14.125 14V6.5C14.125 6.08579 13.7892 5.75 13.375 5.75Z" fill="white" stroke="white" stroke-width="1.5"/>
<path id="Vector_2" d="M5.875 9.5C6.28921 9.5 6.625 9.16421 6.625 8.75C6.625 8.33579 6.28921 8 5.875 8C5.46079 8 5.125 8.33579 5.125 8.75C5.125 9.16421 5.46079 9.5 5.875 9.5Z" fill="black"/>
<path id="Vector_3" d="M11.125 9.5C11.5392 9.5 11.875 9.16421 11.875 8.75C11.875 8.33579 11.5392 8 11.125 8C10.7108 8 10.375 8.33579 10.375 8.75C10.375 9.16421 10.7108 9.5 11.125 9.5Z" fill="black"/>
<path id="Vector_4" d="M7 11C6.80109 11 6.61032 11.079 6.46967 11.2197C6.32902 11.3603 6.25 11.5511 6.25 11.75C6.25 11.9489 6.32902 12.1397 6.46967 12.2803C6.61032 12.421 6.80109 12.5 7 12.5V11ZM10 12.5C10.1989 12.5 10.3897 12.421 10.5303 12.2803C10.671 12.1397 10.75 11.9489 10.75 11.75C10.75 11.5511 10.671 11.3603 10.5303 11.2197C10.3897 11.079 10.1989 11 10 11V12.5ZM7 12.5H10V11H7V12.5Z" fill="black"/>
<path id="Vector_5" d="M8.5 2.75V5.75M1 8.75V11.75M16 8.75V11.75" stroke="white" stroke-width="1.5" stroke-linecap="round" stroke-linejoin="round"/>
<path id="Vector_6" d="M8.5 2.75C8.91421 2.75 9.25 2.41421 9.25 2C9.25 1.58579 8.91421 1.25 8.5 1.25C8.08579 1.25 7.75 1.58579 7.75 2C7.75 2.41421 8.08579 2.75 8.5 2.75Z" stroke="white" stroke-width="1.5"/>
</g>
</g>
</mask>
<g mask="url(#mask0_887_1461)">
<path id="Vector_7" d="M-0.5 -1H17.5V17H-0.5V-1Z" fill="#6B6B6B"/>
</g>
</g>
</svg>
