<svg width="18" height="18" viewBox="0 0 18 18" fill="none" xmlns="http://www.w3.org/2000/svg">
<path d="M4.59375 2.25C3.97215 2.25 3.37601 2.49693 2.93647 2.93647C2.49693 3.37601 2.25 3.97215 2.25 4.59375V6.65625C2.25 6.78057 2.29939 6.8998 2.38729 6.98771C2.4752 7.07561 2.59443 7.125 2.71875 7.125C2.84307 7.125 2.9623 7.07561 3.05021 6.98771C3.13811 6.8998 3.1875 6.78057 3.1875 6.65625V4.59375C3.1875 4.22079 3.33566 3.8631 3.59938 3.59938C3.8631 3.33566 4.22079 3.1875 4.59375 3.1875H6.65625C6.78057 3.1875 6.8998 3.13811 6.98771 3.05021C7.07561 2.9623 7.125 2.84307 7.125 2.71875C7.125 2.59443 7.07561 2.4752 6.98771 2.38729C6.8998 2.29939 6.78057 2.25 6.65625 2.25H4.59375ZM11.3438 2.25C11.2194 2.25 11.1002 2.29939 11.0123 2.38729C10.9244 2.4752 10.875 2.59443 10.875 2.71875C10.875 2.84307 10.9244 2.9623 11.0123 3.05021C11.1002 3.13811 11.2194 3.1875 11.3438 3.1875H13.4062C13.7792 3.1875 14.1369 3.33566 14.4006 3.59938C14.6643 3.8631 14.8125 4.22079 14.8125 4.59375V6.65625C14.8125 6.78057 14.8619 6.8998 14.9498 6.98771C15.0377 7.07561 15.1569 7.125 15.2812 7.125C15.4056 7.125 15.5248 7.07561 15.6127 6.98771C15.7006 6.8998 15.75 6.78057 15.75 6.65625V4.59375C15.75 3.97215 15.5031 3.37601 15.0635 2.93647C14.624 2.49693 14.0279 2.25 13.4062 2.25H11.3438ZM3.1875 11.3438C3.1875 11.2194 3.13811 11.1002 3.05021 11.0123C2.9623 10.9244 2.84307 10.875 2.71875 10.875C2.59443 10.875 2.4752 10.9244 2.38729 11.0123C2.29939 11.1002 2.25 11.2194 2.25 11.3438V13.4062C2.25 14.0279 2.49693 14.624 2.93647 15.0635C3.37601 15.5031 3.97215 15.75 4.59375 15.75H6.65625C6.78057 15.75 6.8998 15.7006 6.98771 15.6127C7.07561 15.5248 7.125 15.4056 7.125 15.2812C7.125 15.1569 7.07561 15.0377 6.98771 14.9498C6.8998 14.8619 6.78057 14.8125 6.65625 14.8125H4.59375C4.22079 14.8125 3.8631 14.6643 3.59938 14.4006C3.33566 14.1369 3.1875 13.7792 3.1875 13.4062V11.3438ZM15.75 11.3438C15.75 11.2194 15.7006 11.1002 15.6127 11.0123C15.5248 10.9244 15.4056 10.875 15.2812 10.875C15.1569 10.875 15.0377 10.9244 14.9498 11.0123C14.8619 11.1002 14.8125 11.2194 14.8125 11.3438V13.4062C14.8125 13.7792 14.6643 14.1369 14.4006 14.4006C14.1369 14.6643 13.7792 14.8125 13.4062 14.8125H11.3438C11.2194 14.8125 11.1002 14.8619 11.0123 14.9498C10.9244 15.0377 10.875 15.1569 10.875 15.2812C10.875 15.4056 10.9244 15.5248 11.0123 15.6127C11.1002 15.7006 11.2194 15.75 11.3438 15.75H13.4062C14.0279 15.75 14.624 15.5031 15.0635 15.0635C15.5031 14.624 15.75 14.0279 15.75 13.4062V11.3438ZM5.25 8.53125C5.12568 8.53125 5.00645 8.58064 4.91854 8.66854C4.83064 8.75645 4.78125 8.87568 4.78125 9C4.78125 9.12432 4.83064 9.24355 4.91854 9.33146C5.00645 9.41936 5.12568 9.46875 5.25 9.46875H12.75C12.8743 9.46875 12.9935 9.41936 13.0815 9.33146C13.1694 9.24355 13.2188 9.12432 13.2188 9C13.2188 8.87568 13.1694 8.75645 13.0815 8.66854C12.9935 8.58064 12.8743 8.53125 12.75 8.53125H5.25Z" fill="white"/>
</svg>
