<svg width="18" height="18" viewBox="0 0 18 18" fill="none" xmlns="http://www.w3.org/2000/svg">
<path d="M11.6251 10.5001H11.0326L10.8226 10.2976C11.2913 9.75308 11.6339 9.11168 11.8258 8.41931C12.0177 7.72694 12.0541 7.00072 11.9326 6.2926C11.5801 4.2076 9.8401 2.5426 7.7401 2.2876C7.00181 2.1942 6.25194 2.27093 5.54787 2.51192C4.8438 2.75291 4.20419 3.15177 3.67798 3.67798C3.15177 4.20419 2.75291 4.8438 2.51192 5.54787C2.27093 6.25194 2.1942 7.00181 2.2876 7.7401C2.5426 9.8401 4.2076 11.5801 6.2926 11.9326C7.00072 12.0541 7.72694 12.0177 8.41931 11.8258C9.11168 11.6339 9.75308 11.2913 10.2976 10.8226L10.5001 11.0326V11.6251L13.6876 14.8126C13.9951 15.1201 14.4976 15.1201 14.8051 14.8126C15.1126 14.5051 15.1126 14.0026 14.8051 13.6951L11.6251 10.5001ZM7.1251 10.5001C5.2576 10.5001 3.7501 8.9926 3.7501 7.1251C3.7501 5.2576 5.2576 3.7501 7.1251 3.7501C8.9926 3.7501 10.5001 5.2576 10.5001 7.1251C10.5001 8.9926 8.9926 10.5001 7.1251 10.5001Z" fill="#FECEE0"/>
</svg>
