<svg width="18" height="18" viewBox="0 0 18 18" fill="none" xmlns="http://www.w3.org/2000/svg">
<mask id="mask0_204_3460" style="mask-type:luminance" maskUnits="userSpaceOnUse" x="2" y="0" width="14" height="18">
<path d="M5.25 1.5V16.5M3 1.875V5.625C3 7.5 5.25 7.5 5.25 7.5C5.25 7.5 7.5 7.5 7.5 5.625V1.875M12.75 7.5V16.5" stroke="white" stroke-width="1.5" stroke-linecap="round" stroke-linejoin="round"/>
<path d="M15 4.5C15 6.15675 13.9927 7.5 12.75 7.5C11.5073 7.5 10.5 6.15675 10.5 4.5C10.5 2.84325 11.5073 1.5 12.75 1.5C13.9927 1.5 15 2.84325 15 4.5Z" fill="white" stroke="white" stroke-width="1.5" stroke-linecap="round" stroke-linejoin="round"/>
</mask>
<g mask="url(#mask0_204_3460)">
<path d="M0 0H18V18H0V0Z" fill="white"/>
</g>
</svg>
