<svg width="8" height="16" viewBox="0 0 8 16" fill="none" xmlns="http://www.w3.org/2000/svg">
<path d="M7.39957 6.61908C7.33223 6.73599 7.23501 6.83288 7.11788 6.89982C7.00075 6.96676 6.86792 7.00134 6.73301 7.00002H1.26739C1.13248 7.00134 0.99965 6.96676 0.882517 6.89982C0.765383 6.83288 0.668162 6.73599 0.600823 6.61908C0.535116 6.50662 0.500488 6.37871 0.500488 6.24846C0.500488 6.11821 0.535116 5.9903 0.600823 5.87783L3.33301 1.1319C3.4013 1.01562 3.49879 0.919214 3.61582 0.852227C3.73285 0.78524 3.86535 0.75 4.0002 0.75C4.13504 0.75 4.26755 0.78524 4.38458 0.852227C4.5016 0.919214 4.5991 1.01562 4.66739 1.1319L7.4002 5.87783C7.46581 5.99035 7.50033 6.11829 7.50022 6.24854C7.50011 6.37879 7.46538 6.50668 7.39957 6.61908Z" fill="white"/>
<path d="M6.33573 9C6.49333 9.0011 6.64845 9.03943 6.78842 9.11188C6.92839 9.18432 7.04925 9.28883 7.14116 9.41687C7.23306 9.54491 7.2934 9.69286 7.31725 9.84865C7.3411 10.0044 7.32778 10.1637 7.2784 10.3133L7.25573 10.375L7.23506 10.417L4.87173 14.4947C4.78832 14.6456 4.6673 14.7724 4.52042 14.8627C4.37353 14.9531 4.20579 15.0039 4.03346 15.0103C3.86114 15.0166 3.6901 14.9784 3.53694 14.8991C3.38379 14.8199 3.25373 14.7024 3.1594 14.558L3.12506 14.5003L0.758397 10.417L0.738064 10.3753C0.678034 10.2275 0.65423 10.0675 0.668639 9.90868C0.683047 9.74982 0.73525 9.59671 0.820889 9.46213C0.906529 9.32756 1.02312 9.21542 1.16093 9.13508C1.29873 9.05475 1.45376 9.00855 1.61306 9.00033L1.6324 9L1.6524 9.00067L1.66673 9H6.33573Z" fill="white"/>
</svg>
