<svg width="18" height="18" viewBox="0 0 18 18" fill="none" xmlns="http://www.w3.org/2000/svg">
<path d="M16.6484 14.8929C16.4969 15.156 16.2782 15.374 16.0146 15.5246C15.7511 15.6752 15.4522 15.753 15.1487 15.75H2.85101C2.54747 15.753 2.2486 15.6752 1.98505 15.5246C1.7215 15.374 1.50275 15.156 1.35124 14.8929C1.2034 14.6399 1.12549 14.3521 1.12549 14.059C1.12549 13.766 1.2034 13.4782 1.35124 13.2251L7.49866 2.54677C7.65232 2.28515 7.87167 2.06823 8.13499 1.91751C8.3983 1.76679 8.69644 1.6875 8.99984 1.6875C9.30324 1.6875 9.60137 1.76679 9.86468 1.91751C10.128 2.06823 10.3474 2.28515 10.501 2.54677L16.6498 13.2251C16.7975 13.4783 16.8751 13.7662 16.8749 14.0592C16.8746 14.3523 16.7965 14.64 16.6484 14.8929Z" fill="white"/>
</svg>
