<svg width="18" height="18" viewBox="0 0 18 18" fill="none" xmlns="http://www.w3.org/2000/svg">
<path d="M2.25 9H6M2.25 9C2.25 10.7902 2.96116 12.5071 4.22703 13.773C5.4929 15.0388 7.20979 15.75 9 15.75M2.25 9C2.25 7.20979 2.96116 5.4929 4.22703 4.22703C5.4929 2.96116 7.20979 2.25 9 2.25M6 9H12M6 9C6 12.7275 7.3425 15.75 9 15.75M6 9C6 5.2725 7.3425 2.25 9 2.25M9 15.75C10.6575 15.75 12 12.7275 12 9M9 15.75C10.7902 15.75 12.5071 15.0388 13.773 13.773C15.0388 12.5071 15.75 10.7902 15.75 9M9 2.25C10.6575 2.25 12 5.2725 12 9M9 2.25C10.7902 2.25 12.5071 2.96116 13.773 4.22703C15.0388 5.4929 15.75 7.20979 15.75 9M12 9H15.75" stroke="white" stroke-width="1.5" stroke-linecap="round" stroke-linejoin="round"/>
</svg>
