<svg width="65" height="20" viewBox="0 0 65 20" fill="none" xmlns="http://www.w3.org/2000/svg">
<path d="M21.7854 16H27.0601V14.7106H23.3092V7.5135H21.7854V16ZM26.814 8.79117H29.4396V16H30.9634V8.79117H33.5774V7.5135H26.814V8.79117ZM34.773 16H40.3173V14.7106H36.2968V12.3897H40.0008V11.1121H36.2968V8.79117H40.2939V7.5135H34.773V16Z" fill="white"/>
<path d="M59.0898 7.78125H47.0352C46.0492 7.78125 45.25 8.46061 45.25 9.29863V13.7014C45.25 14.5394 46.0492 15.2188 47.0352 15.2188H59.0898C60.0758 15.2188 60.875 14.5394 60.875 13.7014V9.29863C60.875 8.46061 60.0758 7.78125 59.0898 7.78125Z" stroke="white" stroke-width="1.125" stroke-miterlimit="10" stroke-linecap="square"/>
<path d="M53.2187 9.60498H47.5034C47.4171 9.60498 47.3472 9.66444 47.3472 9.73779V13.2616C47.3472 13.335 47.4171 13.3945 47.5034 13.3945H53.2187C53.3049 13.3945 53.3749 13.335 53.3749 13.2616V9.73779C53.3749 9.66444 53.3049 9.60498 53.2187 9.60498Z" fill="white" stroke="white" stroke-width="1.125" stroke-miterlimit="10" stroke-linecap="square"/>
<path d="M62.75 10.2605V12.7394" stroke="white" stroke-width="1.125" stroke-miterlimit="10" stroke-linecap="round"/>
<path d="M14.6667 6.66675C15.1727 6.66675 15.5833 7.03841 15.5833 7.49591V15.8376C15.5833 16.2959 15.1727 16.6667 14.6667 16.6667C14.1607 16.6667 13.75 16.2951 13.75 15.8376V7.49591C13.75 7.03758 14.1607 6.66675 14.6667 6.66675ZM11 9.16675C11.2431 9.16675 11.4763 9.25455 11.6482 9.41083C11.8201 9.56711 11.9167 9.77907 11.9167 10.0001V15.8334C11.9167 16.0544 11.8201 16.2664 11.6482 16.4227C11.4763 16.579 11.2431 16.6667 11 16.6667C10.7569 16.6667 10.5237 16.579 10.3518 16.4227C10.1799 16.2664 10.0833 16.0544 10.0833 15.8334V10.0001C10.0833 9.77907 10.1799 9.56711 10.3518 9.41083C10.5237 9.25455 10.7569 9.16675 11 9.16675ZM7.33333 11.6667C7.83933 11.6667 8.25 12.0376 8.25 12.4951V15.8384C8.25 16.2959 7.83933 16.6667 7.33333 16.6667C6.82733 16.6667 6.41667 16.2959 6.41667 15.8384V12.4951C6.41703 12.386 6.44102 12.278 6.48729 12.1773C6.53355 12.0766 6.60117 11.9852 6.68629 11.9083C6.77141 11.8314 6.87236 11.7705 6.98338 11.729C7.0944 11.6876 7.21332 11.6664 7.33333 11.6667ZM3.66667 14.1667C4.17267 14.1667 4.58333 14.5334 4.58333 14.9867V15.8468C4.58237 15.9553 4.5579 16.0626 4.51132 16.1626C4.46473 16.2626 4.39694 16.3532 4.31182 16.4293C4.2267 16.5055 4.12591 16.5656 4.01522 16.6064C3.90452 16.6471 3.78608 16.6676 3.66667 16.6667C3.16067 16.6667 2.75 16.3001 2.75 15.8468V14.9867C2.75096 14.8782 2.77543 14.7709 2.82202 14.6709C2.8686 14.5709 2.93639 14.4803 3.02151 14.4042C3.10664 14.328 3.20742 14.2679 3.31812 14.2271C3.42881 14.1864 3.54725 14.1659 3.66667 14.1667Z" fill="white"/>
</svg>
