<svg width="18" height="18" viewBox="0 0 18 18" fill="none" xmlns="http://www.w3.org/2000/svg">
<path d="M12.9127 14.499C12.4208 13.948 11.8179 13.5073 11.1435 13.2059C10.4692 12.9044 9.73866 12.7491 9 12.75C7.44525 12.75 6.04875 13.425 5.08725 14.499M9 15.75C8.11358 15.75 7.23583 15.5754 6.41689 15.2362C5.59794 14.897 4.85382 14.3998 4.22703 13.773C3.60023 13.1462 3.10303 12.4021 2.76381 11.5831C2.42459 10.7642 2.25 9.88642 2.25 9C2.25 8.11358 2.42459 7.23583 2.76381 6.41689C3.10303 5.59794 3.60023 4.85382 4.22703 4.22703C4.85382 3.60023 5.59794 3.10303 6.41689 2.76381C7.23583 2.42459 8.11358 2.25 9 2.25C10.7902 2.25 12.5071 2.96116 13.773 4.22703C15.0388 5.4929 15.75 7.20979 15.75 9C15.75 10.7902 15.0388 12.5071 13.773 13.773C12.5071 15.0388 10.7902 15.75 9 15.75ZM9 10.5C8.70453 10.5 8.41194 10.4418 8.13896 10.3287C7.86598 10.2157 7.61794 10.0499 7.40901 9.84099C7.20008 9.63206 7.03434 9.38402 6.92127 9.11104C6.8082 8.83806 6.75 8.54547 6.75 8.25C6.75 7.95453 6.8082 7.66194 6.92127 7.38896C7.03434 7.11598 7.20008 6.86794 7.40901 6.65901C7.61794 6.45008 7.86598 6.28434 8.13896 6.17127C8.41194 6.0582 8.70453 6 9 6C9.59674 6 10.169 6.23705 10.591 6.65901C11.0129 7.08097 11.25 7.65326 11.25 8.25C11.25 8.84674 11.0129 9.41903 10.591 9.84099C10.169 10.2629 9.59674 10.5 9 10.5Z" stroke="white" stroke-width="1.5" stroke-linecap="round" stroke-linejoin="round"/>
</svg>
