<svg width="18" height="18" viewBox="0 0 18 18" fill="none" xmlns="http://www.w3.org/2000/svg">
<path d="M4.5 5.4V12.5137C4.5 13.5345 4.5 14.0452 4.653 14.3572C4.79142 14.6396 5.01504 14.8712 5.29228 15.0195C5.56951 15.1678 5.88634 15.2253 6.198 15.1838C6.543 15.1388 6.9675 14.8553 7.8165 14.289L7.81875 14.2875C8.1555 14.0625 8.3235 13.9507 8.49975 13.8885C8.8232 13.7742 9.17606 13.7742 9.4995 13.8885C9.67575 13.9507 9.8445 14.0633 10.1827 14.289C11.0325 14.8553 11.4578 15.138 11.8028 15.1838C12.1143 15.2251 12.431 15.1676 12.708 15.0193C12.9851 14.871 13.2086 14.6394 13.347 14.3572C13.5 14.0452 13.5 13.5345 13.5 12.5137V5.39775C13.5 4.55925 13.5 4.13925 13.3365 3.819C13.1925 3.53669 12.9627 3.30722 12.6802 3.1635C12.36 3 11.94 3 11.1 3H6.9C6.06 3 5.64 3 5.319 3.1635C5.03674 3.30727 4.80727 3.53674 4.6635 3.819C4.5 4.14 4.5 4.56 4.5 5.4Z" stroke="white" stroke-width="1.5" stroke-linecap="round" stroke-linejoin="round"/>
</svg>
