<svg width="18" height="18" viewBox="0 0 18 18" fill="none" xmlns="http://www.w3.org/2000/svg">
<path d="M6.75 6L9 3.75M9 3.75L11.25 6M9 3.75V7.5V11.25M5.25 7.49994C4.551 7.49994 4.2015 7.49994 3.92625 7.61394C3.74414 7.68933 3.57866 7.79986 3.43929 7.93924C3.29992 8.07861 3.18938 8.24408 3.114 8.42619C3 8.70144 3 9.05094 3 9.74994V13.3499C3 14.1899 3 14.6099 3.1635 14.9309C3.30731 15.2132 3.53677 15.4426 3.819 15.5864C4.13925 15.7499 4.55925 15.7499 5.39775 15.7499H12.603C13.4415 15.7499 13.8608 15.7499 14.181 15.5864C14.463 15.4424 14.6925 15.2129 14.8365 14.9309C15 14.6099 15 14.1907 15 13.3522V9.74994C15 9.05094 15 8.70144 14.886 8.42619C14.8106 8.24408 14.7001 8.07861 14.5607 7.93924C14.4213 7.79986 14.2559 7.68933 14.0737 7.61394C13.7985 7.49994 13.449 7.49994 12.75 7.49994" stroke="white" stroke-width="1.5" stroke-linecap="round" stroke-linejoin="round"/>
</svg>
