<svg width="50" height="24" viewBox="0 0 50 24" fill="none" xmlns="http://www.w3.org/2000/svg">
<path d="M5.04688 18.1562C7.49219 18.1562 9.28125 16.7734 9.26562 14.8594C9.28125 13.4375 8.375 12.4141 6.78125 12.2031V12.1094C8.01562 11.8516 8.85938 10.9375 8.84375 9.67188C8.85938 7.9375 7.375 6.53125 5.07812 6.53125C2.86719 6.53125 1.14062 7.83594 1.09375 9.73438H3.04688C3.08594 8.78125 4 8.1875 5.0625 8.1875C6.16406 8.1875 6.88281 8.82812 6.875 9.78125C6.88281 10.7656 6.04688 11.4375 4.84375 11.4375H3.82812V13H4.84375C6.3125 13.0078 7.1875 13.7344 7.1875 14.75C7.1875 15.7578 6.28906 16.4453 5.04688 16.4375C3.86719 16.4453 2.96094 15.8438 2.90625 14.9375H0.859375C0.90625 16.8438 2.63281 18.1562 5.04688 18.1562ZM12.2969 16.5938C12.9453 16.5938 13.5 16.0469 13.5 15.375C13.5 14.7188 12.9453 14.1797 12.2969 14.1719C11.625 14.1797 11.0703 14.7188 11.0781 15.375C11.0703 16.0469 11.625 16.5938 12.2969 16.5938ZM11.0781 9.3125C11.0703 9.98438 11.625 10.5312 12.2969 10.5312C12.9453 10.5312 13.5 9.98438 13.5 9.3125C13.5 8.65625 12.9453 8.11719 12.2969 8.10938C11.625 8.11719 11.0703 8.65625 11.0781 9.3125ZM15.4062 18H23.2656V16.2969H18.2344V16.2188L20.25 14.2188C22.4766 12.1172 23.0859 11.0859 23.0938 9.8125C23.0859 7.91406 21.5312 6.53125 19.2188 6.53125C16.9609 6.53125 15.3516 7.92188 15.3594 10.0625H17.2969C17.2891 8.91406 18.0391 8.1875 19.2031 8.1875C20.3047 8.1875 21.1406 8.85156 21.1406 9.90625C21.1406 10.8594 20.5469 11.5312 19.4062 12.6719L15.4062 16.5312V18ZM29.1562 18.1562C31.6562 18.1562 33.4453 16.8125 33.4531 14.9688C33.4453 13.5312 32.3672 12.3594 31.0156 12.1406V12.0781C32.1875 11.8281 33.0156 10.8047 33.0156 9.5625C33.0156 7.8125 31.375 6.53125 29.1562 6.53125C26.9219 6.53125 25.2891 7.8125 25.2812 9.5625C25.2891 10.7969 26.0938 11.8281 27.2812 12.0781V12.1406C25.9219 12.3594 24.8516 13.5312 24.8594 14.9688C24.8516 16.8125 26.6328 18.1562 29.1562 18.1562ZM26.9531 14.7812C26.9453 13.7109 27.8828 12.9297 29.1562 12.9375C30.4297 12.9297 31.3516 13.7188 31.3594 14.7812C31.3516 15.8281 30.4844 16.5469 29.1562 16.5469C27.8125 16.5469 26.9453 15.8281 26.9531 14.7812ZM27.2656 9.75C27.2734 8.78906 28.0234 8.125 29.1562 8.125C30.2656 8.125 31.0312 8.78906 31.0312 9.75C31.0312 10.7422 30.2422 11.4219 29.1562 11.4219C28.0547 11.4219 27.2734 10.7422 27.2656 9.75Z" fill="white"/>
<path d="M48.2026 7.70371L44.73 17.0837C44.5106 17.6764 43.8789 17.9809 43.3195 17.7633C43.1809 17.7084 43.0553 17.6255 42.9504 17.5196C42.8455 17.4138 42.7636 17.2875 42.7099 17.1485L41.6091 14.366C41.4023 13.8318 40.9922 13.4014 40.4687 13.169L37.8192 12.0134C37.268 11.7725 37.0171 11.1045 37.2581 10.5212C37.315 10.3804 37.3994 10.2522 37.5062 10.1442C37.6131 10.0361 37.7403 9.95035 37.8805 9.89179L46.8148 6.24596C47.3789 6.01554 48.0048 6.30487 48.2119 6.89287C48.3035 7.15304 48.2994 7.44121 48.2026 7.70371Z" fill="white"/>
</svg>
