<svg width="36" height="36" viewBox="0 0 36 36" fill="none" xmlns="http://www.w3.org/2000/svg">
<rect x="0.25" y="0.25" width="35.5" height="35.5" rx="17.75" fill="white"/>
<rect x="0.25" y="0.25" width="35.5" height="35.5" rx="17.75" stroke="#A6A6A6" stroke-width="0.5"/>
<path d="M18.0002 24.4627C17.8002 24.4627 17.6067 24.4252 17.4197 24.3502C17.2317 24.2752 17.0752 24.1752 16.9502 24.0502L10.0502 17.1502C9.77519 16.8752 9.6377 16.5252 9.6377 16.1002C9.6377 15.6752 9.77519 15.3252 10.0502 15.0502C10.3252 14.7752 10.6752 14.6377 11.1002 14.6377C11.5252 14.6377 11.8752 14.7752 12.1502 15.0502L18.0002 20.9002L23.8502 15.0502C24.1252 14.7752 24.4752 14.6377 24.9002 14.6377C25.3252 14.6377 25.6752 14.7752 25.9502 15.0502C26.2252 15.3252 26.3627 15.6752 26.3627 16.1002C26.3627 16.5252 26.2252 16.8752 25.9502 17.1502L19.0502 24.0502C18.9002 24.2002 18.7377 24.3062 18.5627 24.3682C18.3877 24.4312 18.2002 24.4627 18.0002 24.4627Z" fill="black"/>
</svg>
